 http://i.minus.com/j5amBceGQT8t4.png

General
Complete name                            : Gr8 Women Awards 2012 4th Mar HQ XviD.avi
Format                                   : AVI
Format/Info                              : Audio Video Interleave
Format profile                           : OpenDML
File size                                : 1.12 GiB
Duration                                 : 1h 42mn
Overall bit rate                         : 1 560 Kbps
Writing application                      : Lavf52.93.0

Video
ID                                       : 0
Format                                   : MPEG-4 Visual
Format profile                           : Simple@L1
Format settings, BVOP                    : No
Format settings, QPel                    : No
Format settings, GMC                     : No warppoints
Format settings, Matrix                  : Default (H.263)
Codec ID                                 : FMP4
Duration                                 : 1h 42mn
Bit rate                                 : 1 414 Kbps
Width                                    : 512 pixels
Height                                   : 384 pixels
Display aspect ratio                     : 4:3
Frame rate                               : 29.970 fps
Color space                              : YUV
Chroma subsampling                       : 4:2:0
Bit depth                                : 8 bits
Scan type                                : Progressive
Compression mode                         : Lossy
Bits/(Pixel*Frame)                       : 0.240
Stream size                              : 1.02 GiB (91%)
Writing library                          : Lavc52.108.0

Audio
ID                                       : 1
Format                                   : MPEG Audio
Format version                           : Version 1
Format profile                           : Layer 2
Codec ID                                 : 50
Duration                                 : 1h 42mn
Bit rate mode                            : Constant
Bit rate                                 : 128 Kbps
Channel(s)                               : 2 channels
Sampling rate                            : 48.0 KHz
Compression mode                         : Lossy
Stream size                              : 94.2 MiB (8%)
Alignment                                : Aligned on interleaves
Interleave, duration                     : 24 ms (0.72 video frame)

 
http://i.minus.com/jN21kHgxBBcn8.jpg